name GIL06_slow2EmgEnv.mot
datacolumns 51
datarows 5
range 0.79259276 0.79629642
endheader
                time	   rect_fem_l_emgRec	   rect_fem_l_emgEnv	   rect_fem_l_emgAve	   rect_fem_l_emgSDp	   rect_fem_l_emgSDm	   rect_fem_r_emgRec	   rect_fem_r_emgEnv	   rect_fem_r_emgAve	   rect_fem_r_emgSDp	   rect_fem_r_emgSDm	   med_hams_l_emgRec	   med_hams_l_emgEnv	   med_hams_l_emgAve	   med_hams_l_emgSDp	   med_hams_l_emgSDm	   med_hams_r_emgRec	   med_hams_r_emgEnv	   med_hams_r_emgAve	   med_hams_r_emgSDp	   med_hams_r_emgSDm	   lat_hams_l_emgRec	   lat_hams_l_emgEnv	   lat_hams_l_emgAve	   lat_hams_l_emgSDp	   lat_hams_l_emgSDm	   lat_hams_r_emgRec	   lat_hams_r_emgEnv	   lat_hams_r_emgAve	   lat_hams_r_emgSDp	   lat_hams_r_emgSDm	    tib_ant_l_emgRec	    tib_ant_l_emgEnv	    tib_ant_l_emgAve	    tib_ant_l_emgSDp	    tib_ant_l_emgSDm	    tib_ant_r_emgRec	    tib_ant_r_emgEnv	    tib_ant_r_emgAve	    tib_ant_r_emgSDp	    tib_ant_r_emgSDm	    gas_sol_l_emgRec	    gas_sol_l_emgEnv	    gas_sol_l_emgAve	    gas_sol_l_emgSDp	    gas_sol_l_emgSDm	    gas_sol_r_emgRec	    gas_sol_r_emgEnv	    gas_sol_r_emgAve	    gas_sol_r_emgSDp	    gas_sol_r_emgSDm	
          0.79259276	          0.08719648	          0.07977300	          0.08416433	          0.13074009	          0.03758857	          0.00676935	          0.39363539	          0.35041133	          0.40834939	          0.29247326	          0.05314103	          0.12435556	          0.20050694	          0.43110241	         -0.03008853	          0.20038932	          0.34940066	          0.31025535	          0.49638744	          0.12412326	          0.00337669	          0.01284848	          0.03267713	          0.07688694	         -0.01153269	          0.10804533	          0.18409909	          0.20887205	          0.29899734	          0.11874676	          0.00246203	          0.02955128	         -0.02222125	         -0.02196432	         -0.02247818	          0.03257154	          0.19999072	          0.44105351	          0.63396983	          0.24813719	          0.00111643	          0.01169757	          0.00305336	          0.04924889	         -0.04314218	          0.03551639	          0.11167451	          0.11355636	          0.15030442	          0.07680831	
          0.79351866	          0.07403611	          0.07862718	          0.08216880	          0.12802794	          0.03630967	          0.02837276	          0.39029217	          0.34806451	          0.40566352	          0.29046550	          0.07749449	          0.12617264	          0.19925791	          0.42850833	         -0.02999251	          0.14985448	          0.34919231	          0.30921239	          0.49546848	          0.12295629	          0.00374206	          0.01281435	          0.03196722	          0.07538428	         -0.01144984	          0.17001154	          0.18433443	          0.20761561	          0.29719804	          0.11803319	          0.00364337	          0.03023616	         -0.02213694	         -0.02178347	         -0.02249041	          0.05927464	          0.20282208	          0.43980867	          0.63187230	          0.24774504	          0.00199321	          0.01195606	          0.00414358	          0.05012042	         -0.04183327	          0.04756446	          0.11213973	          0.11398064	          0.15175162	          0.07620965	
          0.79444456	          0.00096441	          0.07748062	          0.08019781	          0.12535043	          0.03504519	          0.10464343	          0.38687255	          0.34572354	          0.40299350	          0.28845358	          0.03349871	          0.12796643	          0.19800362	          0.42588997	         -0.02988273	          0.13841307	          0.34887299	          0.30815953	          0.49453130	          0.12178776	          0.00182281	          0.01278017	          0.03126851	          0.07389741	         -0.01136038	          0.21495419	          0.18444355	          0.20637088	          0.29540794	          0.11733381	          0.00719319	          0.03091359	         -0.02199993	         -0.02153678	         -0.02246308	          0.16819140	          0.20577255	          0.43856919	          0.62976913	          0.24736924	          0.00182156	          0.01221037	          0.00524504	          0.05100426	         -0.04051419	          0.03701778	          0.11265729	          0.11440836	          0.15321204	          0.07560467	
          0.79537052	          0.07229263	          0.07633476	          0.07825200	          0.12270851	          0.03379548	          0.29728213	          0.38337631	          0.34338859	          0.40033939	          0.28643778	          0.02499165	          0.12972998	          0.19674425	          0.42324780	         -0.02975930	          0.11929155	          0.34844050	          0.30709687	          0.49357590	          0.12061784	          0.00968772	          0.01274548	          0.03058109	          0.07242658	         -0.01126440	          0.16411807	          0.18442115	          0.20513768	          0.29362690	          0.11664847	          0.01755762	          0.03158216	         -0.02180949	         -0.02122341	         -0.02239557	          0.13675276	          0.20884786	          0.43733507	          0.62766042	          0.24700972	          0.00947770	          0.01245978	          0.00635674	          0.05189933	         -0.03918585	          0.07638662	          0.11322842	          0.11483955	          0.15468563	          0.07499348	
          0.79629642	          0.07131887	          0.07519111	          0.07633238	          0.12010355	          0.03256120	          0.19308365	          0.37980375	          0.34105998	          0.39770159	          0.28441837	          0.08399787	          0.13145648	          0.19548032	          0.42058285	         -0.02962221	          0.08326166	          0.34789296	          0.30602455	          0.49260251	          0.11944659	          0.00028420	          0.01270984	          0.02990514	          0.07097229	         -0.01116201	          0.14213732	          0.18426260	          0.20391615	          0.29185513	          0.11597717	          0.01913936	          0.03224044	         -0.02156493	         -0.02084257	         -0.02228728	          0.04305132	          0.21205383	          0.43610638	          0.62554650	          0.24666627	          0.00994379	          0.01270359	          0.00747751	          0.05280441	         -0.03784940	          0.11479922	          0.11385421	          0.11527421	          0.15617204	          0.07437637	
